<svg xmlns="http://www.w3.org/2000/svg" width="192" height="192" viewBox="0 0 192 192">
<title>TikTok — Min adaptation</title>
<desc>Traced from publisher Play Store artwork. White face, pale gray lower edge, transparent canvas.</desc>
<defs><linearGradient id="face" x1="0" y1="0" x2="0" y2="1" gradientUnits="objectBoundingBox"><stop stop-color="#fff"/><stop offset="1" stop-color="#f6f6f6"/></linearGradient>
<g id="mark" transform="translate(41.16484 38.07692) scale(0.2197802)"><ns0:path xmlns:ns0="http://www.w3.org/2000/svg" d="M0 0 C16.17 0 32.34 0 49 0 C49.99 2.97 50.98 5.94 52 9 C56.522 21.83 62.175 32.531 71 43 C71.652 43.855 72.305 44.709 72.977 45.59 C74.933 47.921 76.769 49.452 79.25 51.188 C82.675 53.758 85.15 56.307 87.688 59.75 C99.358 74.897 116.998 82.99 134.965 88.09 C138 89 138 89 139 90 C139.093 91.535 139.117 93.074 139.114 94.612 C139.113 95.593 139.113 96.573 139.113 97.584 C139.108 98.651 139.103 99.717 139.098 100.816 C139.097 101.36 139.097 101.36 139.093 104.108 C139.089 107 139.08 109.891 139.069 112.783 C139.058 115.732 139.054 118.682 139.049 121.631 C139.038 127.421 139.021 133.21 139 139 C131.238 139.137 123.805 138.998 116.125 137.75 C115.271 137.615 114.418 137.48 113.538 137.341 C105.862 136.073 98.409 134.374 91 132 C90.377 131.801 89.755 131.601 89.113 131.396 C76.165 127.131 62.889 121.273 52 113 C51.997 113.68 51.993 114.36 51.99 115.061 C51.908 131.682 51.816 148.303 51.712 164.925 C51.663 172.963 51.616 181.001 51.578 189.039 C51.545 196.053 51.505 203.067 51.457 210.081 C51.432 213.788 51.41 217.494 51.397 221.201 C51.251 259.177 51.251 259.177 46.812 274.062 C46.598 274.8 46.384 275.538 46.163 276.298 C37.502 304.952 18.958 328.705 -6 345 C-6.256 345.168 -6.256 345.168 -7.551 346.016 C-33.804 362.917 -66.676 367.383 -97.034 361.426 C-119.441 356.549 -144.121 345.61 -156.91 325.759 C-164.121 314.122 -169.359 302.194 -173 289 C-173.178 288.379 -173.356 287.759 -173.539 287.119 C-181.784 257.118 -175.181 223.151 -160.125 196.527 C-142.936 167.342 -115.047 147.921 -82.558 139.509 C-73.047 137.159 -65.141 137 -55 137 C-55 154.49 -55 171.98 -55 190 C-56.98 189.67 -56.98 189.67 -67 188 C-81.921 186.934 -95.485 191.768 -106.977 201.203 C-117.727 210.75 -123.882 223.727 -125 238 C-125.501 253.188 -120.625 267.081 -110.5 278.438 C-108.104 280.993 -105.891 283.272 -102.875 285.062 C-100.016 286.989 -98.659 288.582 -96.625 291.312 C-87.077 304.002 -74.371 309.796 -59 312 C-45.659 313.657 -31.687 308.796 -21 301 C-9.435 291.605 -3.212 278.682 -1.207 264.11 C-0.786 259.821 -0.846 255.518 -0.842 251.212 C-0.837 250.136 -0.832 249.06 -0.827 247.951 C-0.814 244.98 -0.806 242.009 -0.799 239.037 C-0.791 235.827 -0.778 232.618 -0.765 229.408 C-0.743 223.851 -0.725 218.295 -0.709 212.739 C-0.686 204.705 -0.658 196.671 -0.629 188.638 C-0.581 175.603 -0.538 162.568 -0.497 149.533 C-0.458 136.874 -0.416 124.214 -0.372 111.554 C-0.371 111.164 -0.371 111.164 -0.364 109.188 C-0.35 105.271 -0.337 101.354 -0.323 97.437 C-0.209 64.958 -0.103 32.479 0 0 Z " transform="translate(268,77)" />
</g></defs>
<use href="#mark" xmlns:xlink="http://www.w3.org/1999/xlink" xlink:href="#mark" transform="translate(0 1.7)" fill="#dcdcdc"/>
<use href="#mark" xmlns:xlink="http://www.w3.org/1999/xlink" xlink:href="#mark" fill="url(#face)"/>
<g fill="#dfdfdf" transform="translate(41.16484 38.07692) scale(0.2197802)"></g>
</svg>